<svg xmlns="http://www.w3.org/2000/svg"  viewBox="0 0 48 48" width="24px" height="24px"><path d="M 11.5 6 C 8.4802259 6 6 8.4802259 6 11.5 L 6 29.410156 A 1.50015 1.50015 0 1 0 9 29.410156 L 9 11.5 C 9 10.101774 10.101774 9 11.5 9 L 36.5 9 C 37.898226 9 39 10.101774 39 11.5 L 39 12.695312 A 1.50015 1.50015 0 1 0 42 12.695312 L 42 11.5 C 42 8.4802259 39.519774 6 36.5 6 L 11.5 6 z M 23.205078 13.001953 C 22.532078 13.001953 21.877234 13.381953 21.490234 14.001953 C 20.712234 15.361953 20.989359 18.014297 22.193359 20.779297 L 22.101562 21.041016 C 21.470562 22.825016 20.818078 24.670375 19.205078 27.734375 C 16.603078 28.818375 13.479641 30.475672 13.181641 32.263672 C 13.040641 32.901672 13.246719 33.554406 13.761719 34.066406 C 14.228719 34.468406 14.841328 34.689453 15.486328 34.689453 C 17.396328 34.689453 19.462828 32.747953 21.798828 28.751953 C 23.121828 28.312953 25.063438 27.730234 27.023438 27.365234 C 29.362437 29.371234 31.455688 29.796875 32.804688 29.796875 C 34.575688 29.796875 35.122344 28.944703 35.277344 28.470703 C 35.611344 27.806703 35.478641 27.008766 34.931641 26.384766 L 34.923828 26.376953 C 33.311828 24.702953 29.311594 25.206484 27.808594 25.396484 L 27.681641 25.412109 C 26.252641 24.015109 25.249609 22.351594 24.849609 21.683594 C 25.460609 19.823594 25.772078 18.177859 25.830078 16.505859 C 25.830078 14.889859 25.143078 13.001953 23.205078 13.001953 z M 23.205078 14.611328 C 23.596078 14.611328 23.65525 15.247234 23.65625 15.615234 C 23.60525 16.684234 23.431719 17.736 23.136719 18.75 C 22.514719 16.744 22.647156 15.298547 22.910156 14.810547 C 22.993156 14.690547 23.107078 14.611328 23.205078 14.611328 z M 40.476562 16.796875 A 1.50015 1.50015 0 0 0 39 18.318359 L 39 36.5 C 39 37.898226 37.898226 39 36.5 39 L 11.5 39 C 10.101774 39 9 37.898226 9 36.5 L 9 35.302734 A 1.50015 1.50015 0 1 0 6 35.302734 L 6 36.5 C 6 39.519774 8.4802259 42 11.5 42 L 36.5 42 C 39.519774 42 42 39.519774 42 36.5 L 42 18.318359 A 1.50015 1.50015 0 0 0 40.476562 16.796875 z M 24.083984 23.890625 C 24.558984 24.599625 25.154891 25.325828 25.587891 25.798828 C 25.465891 25.829828 25.321641 25.862484 25.181641 25.896484 C 24.610641 26.034484 23.802203 26.230937 23.033203 26.460938 C 23.404203 25.648937 23.820984 24.609625 24.083984 23.890625 z M 30.642578 26.660156 C 31.215828 26.655031 31.776594 26.687844 32.246094 26.777344 C 32.617094 26.870344 33.041313 27.080547 32.945312 27.560547 L 32.943359 27.574219 C 32.925359 27.699219 32.841938 27.821156 32.710938 27.910156 C 32.560938 28.009156 32.220281 28.153906 31.613281 28.003906 C 30.679281 27.757906 29.79075 27.343578 28.96875 26.767578 C 29.48425 26.708578 30.069328 26.665281 30.642578 26.660156 z M 18.234375 29.933594 C 16.900375 31.960594 15.684281 33.017578 15.113281 33.017578 C 15.044281 33.017578 14.941141 32.965641 14.869141 32.931641 C 14.800141 32.884641 14.733203 32.821188 14.783203 32.617188 C 14.902203 32.060187 15.882375 31.083594 18.234375 29.933594 z"/></svg>